<svg width="86" height="33" viewBox="0 0 86 33" fill="none" xmlns="http://www.w3.org/2000/svg">
<path d="M12.983 29C13.1857 29.0033 13.3846 28.9449 13.5534 28.8326C13.7222 28.7202 13.8528 28.5593 13.928 28.371L17.769 18.77L27.371 14.929C27.5567 14.8548 27.7159 14.7266 27.8281 14.561C27.9402 14.3954 28.0001 14.2 28 14L28 13.984C27.9968 13.7815 27.9322 13.5847 27.8147 13.4197C27.6972 13.2547 27.5324 13.1292 27.342 13.06L5.342 5.05999C5.16303 4.9945 4.96906 4.98152 4.78296 5.02257C4.59685 5.06362 4.42636 5.157 4.29154 5.29171C4.15673 5.42642 4.06322 5.59684 4.02202 5.78292C3.98082 5.96899 3.99365 6.16296 4.059 6.34199L12.059 28.342C12.1284 28.5324 12.254 28.6973 12.4192 28.8148C12.5844 28.9323 12.7813 28.9969 12.984 29L12.983 29Z" fill="white"/>
<path d="M47.436 21.636L45.012 30H43.788L41.844 23.268L39.828 30L38.616 30.012L36.276 21.636H37.44L39.264 28.728L41.28 21.636H42.504L44.424 28.704L46.26 21.636H47.436ZM48.955 22.356C48.747 22.356 48.571 22.284 48.427 22.14C48.283 21.996 48.211 21.82 48.211 21.612C48.211 21.404 48.283 21.228 48.427 21.084C48.571 20.94 48.747 20.868 48.955 20.868C49.155 20.868 49.323 20.94 49.459 21.084C49.603 21.228 49.675 21.404 49.675 21.612C49.675 21.82 49.603 21.996 49.459 22.14C49.323 22.284 49.155 22.356 48.955 22.356ZM49.483 23.424V30H48.391V23.424H49.483ZM54.3082 23.304C55.1082 23.304 55.7562 23.548 56.2522 24.036C56.7482 24.516 56.9962 25.212 56.9962 26.124V30H55.9162V26.28C55.9162 25.624 55.7522 25.124 55.4242 24.78C55.0962 24.428 54.6482 24.252 54.0802 24.252C53.5042 24.252 53.0442 24.432 52.7002 24.792C52.3642 25.152 52.1962 25.676 52.1962 26.364V30H51.1042V23.424H52.1962V24.36C52.4122 24.024 52.7042 23.764 53.0722 23.58C53.4482 23.396 53.8602 23.304 54.3082 23.304ZM58.1319 26.688C58.1319 26.016 58.2679 25.428 58.5399 24.924C58.8119 24.412 59.1839 24.016 59.6559 23.736C60.1359 23.456 60.6719 23.316 61.2639 23.316C61.7759 23.316 62.2519 23.436 62.6919 23.676C63.1319 23.908 63.4679 24.216 63.6999 24.6V21.12H64.8039V30H63.6999V28.764C63.4839 29.156 63.1639 29.48 62.7399 29.736C62.3159 29.984 61.8199 30.108 61.2519 30.108C60.6679 30.108 60.1359 29.964 59.6559 29.676C59.1839 29.388 58.8119 28.984 58.5399 28.464C58.2679 27.944 58.1319 27.352 58.1319 26.688ZM63.6999 26.7C63.6999 26.204 63.5999 25.772 63.3999 25.404C63.1999 25.036 62.9279 24.756 62.5839 24.564C62.2479 24.364 61.8759 24.264 61.4679 24.264C61.0599 24.264 60.6879 24.36 60.3519 24.552C60.0159 24.744 59.7479 25.024 59.5479 25.392C59.3479 25.76 59.2479 26.192 59.2479 26.688C59.2479 27.192 59.3479 27.632 59.5479 28.008C59.7479 28.376 60.0159 28.66 60.3519 28.86C60.6879 29.052 61.0599 29.148 61.4679 29.148C61.8759 29.148 62.2479 29.052 62.5839 28.86C62.9279 28.66 63.1999 28.376 63.3999 28.008C63.5999 27.632 63.6999 27.196 63.6999 26.7Z" fill="white"/>
<path d="M36.72 5.508C36.776 4.772 37.06 4.196 37.572 3.78C38.084 3.364 38.748 3.156 39.564 3.156C40.108 3.156 40.576 3.256 40.968 3.456C41.368 3.648 41.668 3.912 41.868 4.248C42.076 4.584 42.18 4.964 42.18 5.388C42.18 5.884 42.036 6.312 41.748 6.672C41.468 7.032 41.1 7.264 40.644 7.368V7.428C41.164 7.556 41.576 7.808 41.88 8.184C42.184 8.56 42.336 9.052 42.336 9.66C42.336 10.116 42.232 10.528 42.024 10.896C41.816 11.256 41.504 11.54 41.088 11.748C40.672 11.956 40.172 12.06 39.588 12.06C38.74 12.06 38.044 11.84 37.5 11.4C36.956 10.952 36.652 10.32 36.588 9.504H37.644C37.7 9.984 37.896 10.376 38.232 10.68C38.568 10.984 39.016 11.136 39.576 11.136C40.136 11.136 40.56 10.992 40.848 10.704C41.144 10.408 41.292 10.028 41.292 9.564C41.292 8.964 41.092 8.532 40.692 8.268C40.292 8.004 39.688 7.872 38.88 7.872H38.604V6.96H38.892C39.628 6.952 40.184 6.832 40.56 6.6C40.936 6.36 41.124 5.992 41.124 5.496C41.124 5.072 40.984 4.732 40.704 4.476C40.432 4.22 40.04 4.092 39.528 4.092C39.032 4.092 38.632 4.22 38.328 4.476C38.024 4.732 37.844 5.076 37.788 5.508H36.72ZM44.0984 12.072C43.8904 12.072 43.7144 12 43.5704 11.856C43.4264 11.712 43.3544 11.536 43.3544 11.328C43.3544 11.12 43.4264 10.944 43.5704 10.8C43.7144 10.656 43.8904 10.584 44.0984 10.584C44.2984 10.584 44.4664 10.656 44.6024 10.8C44.7464 10.944 44.8184 11.12 44.8184 11.328C44.8184 11.536 44.7464 11.712 44.6024 11.856C44.4664 12 44.2984 12.072 44.0984 12.072ZM51.1899 4.176L47.8539 12H46.7499L50.1339 4.284H45.5019V3.348H51.1899V4.176ZM58.9719 12L56.3919 9.096V12H55.2999V3.12H56.3919V8.34L58.9239 5.424H60.4479L57.3519 8.7L60.4599 12H58.9719ZM69.1437 5.304C69.6557 5.304 70.1117 5.412 70.5117 5.628C70.9117 5.836 71.2277 6.152 71.4597 6.576C71.6917 7 71.8077 7.516 71.8077 8.124V12H70.7277V8.28C70.7277 7.624 70.5637 7.124 70.2357 6.78C69.9157 6.428 69.4797 6.252 68.9277 6.252C68.3597 6.252 67.9077 6.436 67.5717 6.804C67.2357 7.164 67.0677 7.688 67.0677 8.376V12H65.9877V8.28C65.9877 7.624 65.8237 7.124 65.4957 6.78C65.1757 6.428 64.7397 6.252 64.1877 6.252C63.6197 6.252 63.1677 6.436 62.8317 6.804C62.4957 7.164 62.3277 7.688 62.3277 8.376V12H61.2357V5.424H62.3277V6.372C62.5437 6.028 62.8317 5.764 63.1917 5.58C63.5597 5.396 63.9637 5.304 64.4037 5.304C64.9557 5.304 65.4437 5.428 65.8677 5.676C66.2917 5.924 66.6077 6.288 66.8157 6.768C66.9997 6.304 67.3037 5.944 67.7277 5.688C68.1517 5.432 68.6237 5.304 69.1437 5.304ZM77.439 0.696L74.151 14.04H73.071L76.347 0.696H77.439ZM82.09 5.304C82.586 5.304 83.034 5.412 83.434 5.628C83.834 5.836 84.146 6.152 84.37 6.576C84.602 7 84.718 7.516 84.718 8.124V12H83.638V8.28C83.638 7.624 83.474 7.124 83.146 6.78C82.818 6.428 82.37 6.252 81.802 6.252C81.226 6.252 80.766 6.432 80.422 6.792C80.086 7.152 79.918 7.676 79.918 8.364V12H78.826V3.12H79.918V6.36C80.134 6.024 80.43 5.764 80.806 5.58C81.19 5.396 81.618 5.304 82.09 5.304Z" fill="white"/>
</svg>
